<svg xmlns="http://www.w3.org/2000/svg" viewBox="0 0 724 250" role="img" aria-label="Blue Sardinia">
  <title>Blue Sardinia</title>
  <g fill="none" stroke="#c9a96b" stroke-width="6.5" stroke-linecap="round" stroke-linejoin="round">
    <!-- B -->
    <path d="M48 40 V190" />
    <path d="M66 40 V190" />
    <path d="M66 40 H112 C150 40 150 115 112 115 H66" />
    <path d="M66 115 H120 C164 115 164 190 120 190 H66" />
    <!-- L -->
    <path d="M212 40 V190 H300" />
    <path d="M230 40 V174" />
    <!-- U -->
    <path d="M338 40 V128 A62 62 0 0 0 462 128 V40" />
    <path d="M356 40 V128 A44 44 0 0 0 444 128 V40" />
    <!-- E — the bow -->
    <circle cx="585" cy="115" r="70" />
    <path d="M556 52 V178" />
    <!-- E — the arrow (contained, as in the original) -->
    <path d="M520 115 H678" />
    <path d="M666 99 L702 115 L666 131 Z" fill="#c9a96b" />
    <path d="M520 115 L540 99 M520 115 L540 131" />
    <path d="M533 115 L551 101 M533 115 L551 129" />
  </g>
  <text x="384" y="234" text-anchor="middle" font-family="Inter, system-ui, sans-serif" font-size="30" font-weight="500" letter-spacing="58" fill="#8ea4be">SARDINIA</text>
</svg>
